
<svg width="90" height="93" viewBox="0 0 90 93" fill="none" xmlns="http://www.w3.org/2000/svg">
<g clip-path="url(#clip0_85_1985)">
<path opacity="0.2" d="M55.7619 52.2557C55.3877 52.7621 54.9022 53.2066 54.3054 53.5893C53.7087 53.9721 53.0543 54.2841 52.3423 54.5254C51.6407 54.7527 50.9172 54.9033 50.1719 54.9774C49.4115 55.0292 48.6957 54.9995 48.0244 54.8885L48.1133 54.0035L52.6545 55.6958L50.3314 58.8395L22.2042 49.8123L24.7144 46.4155L37.503 50.5199L36.5317 51.0695C35.9344 50.7734 35.4449 50.4162 35.0634 49.9979C34.6565 49.5715 34.3725 49.1062 34.2114 48.6021C34.0249 48.0898 33.9659 47.5749 34.0344 47.0574C34.1029 46.54 34.3086 46.0491 34.6516 45.585C35.3688 44.6145 36.4596 43.903 37.924 43.4507C39.3734 42.9762 41.0585 42.7775 42.9793 42.8545C44.8747 42.9234 46.8374 43.2835 48.8673 43.935C50.9226 44.5947 52.5885 45.399 53.8648 46.3481C55.1262 47.275 55.9381 48.2577 56.3007 49.2964C56.6379 50.3269 56.4583 51.3133 55.7619 52.2557ZM49.9687 51.4928C50.3429 50.9864 50.442 50.47 50.2659 49.9437C50.0898 49.4173 49.6812 48.9295 49.0402 48.4801C48.3841 48.0085 47.5105 47.5976 46.4195 47.2475C45.3537 46.9054 44.3369 46.7096 43.369 46.66C42.4116 46.5963 41.5768 46.6852 40.8648 46.9265C40.1528 47.1678 39.6097 47.5417 39.2355 48.048C38.8509 48.5684 38.7339 49.0878 38.8847 49.606C39.0354 50.1242 39.4388 50.6191 40.0948 51.0907C40.7509 51.5622 41.6118 51.969 42.6775 52.3111C43.7686 52.6612 44.798 52.8611 45.7659 52.9108C46.7084 52.9522 47.5484 52.8564 48.2858 52.6232C49.0232 52.39 49.5841 52.0132 49.9687 51.4928ZM64.9572 39.749C64.0425 40.9868 62.8033 41.9203 61.2395 42.5495C59.6504 43.1706 57.8949 43.4859 55.9728 43.4955C54.0254 43.497 52.0495 43.1761 50.0449 42.5327C48.4971 42.0359 47.1801 41.4393 46.0939 40.7426C45.0077 40.046 44.1823 39.2938 43.6176 38.4862C43.0276 37.6703 42.7335 36.8364 42.7354 35.9843C42.7222 35.11 43.0223 34.2579 43.6356 33.4281C44.2177 32.6404 45.0015 32.0045 45.9871 31.5203C46.9832 31.0221 48.1146 30.6805 49.3815 30.4954C50.6484 30.3104 51.997 30.2908 53.4274 30.4366C54.8579 30.5825 56.2986 30.9056 57.7495 31.4061L59.3705 31.9525L52.7753 40.8771L48.9911 40.2629L53.9181 33.5959L54.3762 34.1866L53.615 33.9423C52.9598 33.7669 52.3184 33.7002 51.6908 33.7424C51.0482 33.7624 50.473 33.8823 49.9652 34.1022C49.4574 34.322 49.058 34.6289 48.767 35.0227C48.3616 35.5713 48.2163 36.1076 48.3313 36.6318C48.4313 37.1337 48.7891 37.6053 49.4048 38.0465C49.9951 38.4796 50.8358 38.8712 51.9269 39.2214C53.0434 39.5797 54.1138 39.7666 55.1383 39.7822C56.1477 39.7755 57.0627 39.5994 57.8833 39.2537C58.7142 38.8939 59.3843 38.3694 59.8937 37.6802C60.2471 37.2019 60.432 36.7393 60.4486 36.2921C60.4755 35.8309 60.3455 35.2846 60.0588 34.6531L65.2626 34.3655C65.6255 35.0215 65.8407 35.6648 65.9083 36.2955C65.9759 36.9263 65.9188 37.5344 65.7372 38.12C65.5914 38.6996 65.3314 39.2426 64.9572 39.749Z" fill="white"/>
<path d="M55.0177 46.6686C54.6435 47.1749 54.158 47.6195 53.5613 48.0022C52.9645 48.3849 52.3101 48.6969 51.5981 48.9383C50.8965 49.1655 50.173 49.3162 49.4277 49.3902C48.6674 49.442 47.9516 49.4124 47.2802 49.3013L47.3692 48.4163L51.9104 50.1087L49.5873 53.2523L21.46 44.2252L23.9703 40.8283L36.7588 44.9327L35.7876 45.4824C35.1902 45.1862 34.7008 44.829 34.3192 44.4108C33.9123 43.9843 33.6283 43.5191 33.4672 43.0149C33.2808 42.5026 33.2218 41.9877 33.2902 41.4703C33.3587 40.9528 33.5645 40.462 33.9075 39.9978C34.6247 39.0273 35.7155 38.3159 37.1799 37.8636C38.6293 37.3891 40.3144 37.1903 42.2352 37.2673C44.1306 37.3362 46.0933 37.6964 48.1232 38.3479C50.1785 39.0075 51.8443 39.8119 53.1207 40.7609C54.382 41.6878 55.194 42.6706 55.5566 43.7092C55.8938 44.7397 55.7141 45.7262 55.0177 46.6686ZM49.2246 45.9056C49.5988 45.3992 49.6979 44.8829 49.5218 44.3565C49.3457 43.8302 48.9371 43.3423 48.296 42.8929C47.64 42.4214 46.7664 42.0105 45.6753 41.6603C44.6096 41.3183 43.5928 41.1225 42.6249 41.0728C41.6674 41.0092 40.8327 41.098 40.1207 41.3393C39.4086 41.5807 38.8655 41.9545 38.4913 42.4609C38.1067 42.9813 37.9898 43.5006 38.1405 44.0188C38.2912 44.537 38.6946 45.0319 39.3507 45.5035C40.0067 45.9751 40.8676 46.3819 41.9333 46.7239C43.0244 47.0741 44.0539 47.274 45.0218 47.3236C45.9643 47.3651 46.8043 47.2692 47.5416 47.036C48.279 46.8028 48.84 46.426 49.2246 45.9056ZM64.213 34.1618C63.2983 35.3996 62.0591 36.3331 60.4954 36.9623C58.9063 37.5834 57.1507 37.8988 55.2287 37.9084C53.2813 37.9098 51.3053 37.5889 49.3008 36.9456C47.7529 36.4488 46.4359 35.8521 45.3497 35.1555C44.2636 34.4588 43.4381 33.7067 42.8735 32.899C42.2835 32.0832 41.9894 31.2492 41.9912 30.3971C41.9781 29.5228 42.2782 28.6708 42.8914 27.8409C43.4735 27.0532 44.2574 26.4173 45.243 25.9332C46.239 25.435 47.3705 25.0933 48.6373 24.9083C49.9042 24.7232 51.2529 24.7036 52.6833 24.8495C54.1137 24.9953 55.5544 25.3185 57.0053 25.8189L58.6264 26.3653L52.0311 35.2899L48.247 34.6758L53.1739 28.0087L53.632 28.5995L52.8708 28.3552C52.2157 28.1797 51.5743 28.1131 50.9467 28.1553C50.3041 28.1752 49.7289 28.2952 49.2211 28.515C48.7133 28.7349 48.3139 29.0417 48.0228 29.4356C47.6174 29.9841 47.4722 30.5205 47.5872 31.0446C47.6871 31.5465 48.0449 32.0181 48.6607 32.4593C49.251 32.8924 50.0917 33.284 51.1828 33.6342C52.2992 33.9925 53.3697 34.1795 54.3941 34.195C55.4036 34.1884 56.3186 34.0122 57.1391 33.6665C57.9701 33.3067 58.6402 32.7822 59.1495 32.093C59.5029 31.6148 59.6879 31.1521 59.7044 30.705C59.7313 30.2438 59.6014 29.6974 59.3146 29.0659L64.5185 28.7784C64.8814 29.4343 65.0966 30.0776 65.1642 30.7084C65.2317 31.3391 65.1747 31.9472 64.9931 32.5328C64.8473 33.1125 64.5872 33.6555 64.213 34.1618Z" fill="url(#paint0_linear_85_1985)"/>
<path d="M52.6901 73.5951L52.2933 63.1758L52.6163 62.7553L53.013 73.1746L52.6901 73.5951ZM53.659 72.3337L53.2622 61.9144L54.5541 60.2326L54.9508 70.6519L53.659 72.3337ZM55.2738 70.2314L54.877 59.8121L55.2 59.3917L55.5968 69.811L55.2738 70.2314ZM55.4453 75.6244C55.2815 76.0723 55.092 76.4364 54.8767 76.7167C54.6757 76.9784 54.5284 77.0652 54.4346 76.9771C54.3405 76.8773 54.2848 76.6038 54.2678 76.1564C54.2647 76.074 54.2633 75.9398 54.2638 75.7538L54.2692 74.7088L53.8601 75.2414L53.8453 74.8529L54.2651 74.3063L54.2672 73.4696L54.576 72.9748L54.6191 72.9188L54.6204 72.9541C54.6074 73.0081 54.598 73.0574 54.5922 73.1021C54.5792 73.1561 54.5738 73.2125 54.576 73.2714L54.5558 73.9279L55.1587 73.143L55.1735 73.5316L54.5491 74.3444L54.5558 75.4107C54.5553 75.5967 54.556 75.7132 54.5578 75.7603C54.5712 76.1135 54.6056 76.3221 54.6607 76.3862C54.7155 76.4386 54.7966 76.3947 54.9043 76.2545C54.9832 76.1517 55.0577 76.0301 55.1277 75.8896C55.1905 75.7584 55.2629 75.5837 55.345 75.3657L55.4453 75.6244ZM56.2435 68.969L55.8468 58.5497L56.1697 58.1292L56.5665 68.5485L56.2435 68.969ZM57.2124 67.7076L56.8157 57.2883L57.1386 56.8679L57.5354 67.2872L57.2124 67.7076ZM58.1813 66.4462L57.7846 56.027L59.0764 54.3451L59.4732 64.7644L58.1813 66.4462ZM58.4619 68.7687C58.6556 68.5164 58.8214 68.418 58.9591 68.4735L58.8433 68.9949L58.8353 69.0795L58.8016 69.0863C58.7927 69.0485 58.7841 69.0225 58.7761 69.0083C58.7604 68.9917 58.7339 68.9891 58.6967 69.0005C58.6294 69.0139 58.5491 69.0814 58.4558 69.2029C58.3625 69.3243 58.2744 69.4823 58.1914 69.6769C58.1079 69.8596 58.0442 70.0661 58.0003 70.2963C57.9491 70.5359 57.928 70.7734 57.937 71.0089L57.9975 72.5983L57.7069 72.9767L57.5925 69.9745L57.894 69.5821L57.9041 70.1436C57.9471 69.8898 58.0202 69.634 58.1234 69.3761C58.227 69.13 58.3398 68.9275 58.4619 68.7687ZM59.797 64.3429L59.4002 53.9236L59.7232 53.5031L60.12 63.9224L59.797 64.3429ZM60.7659 63.0815L60.3691 52.6622L60.6921 52.2418L61.0889 62.6611L60.7659 63.0815ZM61.4118 62.2406L61.0151 51.8213L61.661 50.9804L62.0578 61.3997L61.4118 62.2406ZM61.6493 64.6191C61.9077 64.2827 62.1093 64.1376 62.2542 64.1838C62.3991 64.23 62.4818 64.5238 62.5024 65.0654L62.563 66.6548L62.2508 67.0612L62.2333 66.6021C62.1391 67.0954 61.9377 67.543 61.6291 67.9447C61.4281 68.2063 61.2673 68.3354 61.1466 68.3318C61.026 68.3283 60.9609 68.2029 60.9515 67.9556C60.9434 67.7437 60.9796 67.5052 61.0599 67.24C61.133 66.9842 61.2395 66.7157 61.3795 66.4347C61.5127 66.1747 61.6654 65.9326 61.8377 65.7084C61.9884 65.5122 62.1252 65.3464 62.2481 65.2111C62.2212 64.9002 62.1584 64.7348 62.0597 64.715C61.961 64.6952 61.822 64.802 61.6426 65.0356C61.5493 65.1571 61.4643 65.2987 61.3876 65.4603C61.3037 65.6313 61.2279 65.8165 61.1601 66.0159L61.0087 65.8978C61.1702 65.391 61.3838 64.9648 61.6493 64.6191ZM61.6479 67.5495C61.8489 67.2879 62.0029 66.9822 62.1102 66.6326C62.2178 66.2947 62.2685 65.9445 62.2622 65.582C62.1389 65.7055 62.009 65.856 61.8727 66.0336C61.6717 66.2952 61.5125 66.5643 61.3949 66.8408C61.2841 67.0963 61.233 67.3359 61.2415 67.5596C61.2541 67.8892 61.3895 67.8859 61.6479 67.5495ZM63.3505 59.7168L62.9537 49.2975L63.2767 48.8771L63.6734 59.2963L63.3505 59.7168ZM64.9653 57.6145L64.5685 47.1952L64.8915 46.7748L65.2883 57.1941L64.9653 57.6145ZM65.6112 56.7736L65.2145 46.3543L65.8604 45.5134L66.2572 55.9327L65.6112 56.7736ZM65.484 62.9262C65.3045 63.1598 65.1442 63.3006 65.0029 63.3486C64.8611 63.3849 64.7463 63.3367 64.6584 63.204C64.5705 63.0713 64.5207 62.8519 64.509 62.5458C64.4978 62.2515 64.5272 61.9352 64.5972 61.5969C64.6672 61.2587 64.7677 60.9302 64.8986 60.6114C65.0301 60.3043 65.1855 60.034 65.3649 59.8004C65.5085 59.6136 65.643 59.4878 65.7686 59.4232C65.8871 59.3678 65.9891 59.3771 66.0748 59.4509L65.9032 59.9894L65.883 60.0527L65.8601 60.0455C65.8588 60.0101 65.8503 59.9842 65.8346 59.9675C65.8265 59.9533 65.8072 59.9414 65.7767 59.9316C65.7161 59.924 65.6529 59.9445 65.587 59.9933C65.5134 60.0396 65.4336 60.1189 65.3474 60.231C65.2398 60.3711 65.1447 60.5444 65.0621 60.7507C64.9724 60.9663 64.9058 61.1952 64.8623 61.4372C64.8112 61.6767 64.7898 61.9084 64.7984 62.1321C64.8069 62.3557 64.8434 62.5244 64.908 62.638C64.9722 62.7399 65.0527 62.7772 65.1496 62.7499C65.2541 62.725 65.3638 62.6379 65.4786 62.4884C65.6652 62.2454 65.822 61.9116 65.9489 61.4868L66.1225 61.5945C65.9552 62.1459 65.7423 62.5899 65.484 62.9262ZM66.9039 55.0907L66.5072 44.6714L66.8301 44.251L67.2269 54.6703L66.9039 55.0907ZM67.8728 53.8293L67.4761 43.4101L68.7679 41.7282L69.1647 52.1475L67.8728 53.8293ZM69.4877 51.7271L69.0909 41.3078L69.4139 40.8873L69.8106 51.3066L69.4877 51.7271ZM69.6591 57.12C69.4954 57.568 69.3059 57.9321 69.0906 58.2124C68.8896 58.474 68.7423 58.5608 68.6485 58.4728C68.5543 58.373 68.4987 58.0994 68.4817 57.652C68.4785 57.5696 68.4772 57.4354 68.4777 57.2495L68.4831 56.2045L68.074 56.7371L68.0592 56.3485L68.479 55.8019L68.4811 54.9652L68.7899 54.4705L68.833 54.4144L68.8343 54.4497C68.8213 54.5037 68.8119 54.5531 68.806 54.5977C68.793 54.6517 68.7877 54.7082 68.7899 54.767L68.7697 55.4235L69.3726 54.6387L69.3874 55.0272L68.763 55.8401L68.7697 56.9064C68.7692 57.0923 68.7699 57.2089 68.7717 57.2559C68.7851 57.6091 68.8194 57.8178 68.8746 57.8819C68.9293 57.9342 69.0105 57.8903 69.1182 57.7502C69.1971 57.6474 69.2716 57.5257 69.3416 57.3852C69.4044 57.254 69.4768 57.0794 69.5589 56.8613L69.6591 57.12ZM70.4574 50.4646L70.0606 40.0453L70.3836 39.6249L70.7804 50.0442L70.4574 50.4646ZM71.7493 48.7828L71.3525 38.3635L72.6444 36.6817L73.0412 47.101L71.7493 48.7828ZM73.3641 46.6805L72.9673 36.2612L73.2903 35.8408L73.6871 46.2601L73.3641 46.6805ZM72.4503 53.8386C72.2852 54.0535 72.1356 54.1803 72.0015 54.2189C71.8746 54.2483 71.7707 54.1919 71.69 54.0499C71.6021 53.9172 71.5523 53.6978 71.5406 53.3917C71.529 53.0856 71.5581 52.7634 71.6281 52.4252C71.6909 52.0963 71.7809 51.7877 71.8979 51.4993C72.0217 51.1899 72.1662 50.9277 72.3312 50.7128C72.4963 50.4979 72.6425 50.3817 72.7699 50.3641C72.9041 50.3254 73.0115 50.3771 73.0922 50.5191C73.173 50.6612 73.2192 50.8852 73.2308 51.1913C73.2425 51.4974 73.2169 51.8149 73.1541 52.1438C73.0913 52.4727 72.9978 52.786 72.8735 53.0837C72.7564 53.3721 72.6153 53.6237 72.4503 53.8386ZM72.4355 53.4501C72.536 53.3193 72.6272 53.1448 72.7093 52.9267C72.7847 52.7298 72.8441 52.5103 72.8876 52.2683C72.9235 52.0239 72.9372 51.7898 72.9287 51.5661C72.9157 51.2247 72.8549 51.0134 72.7464 50.9323C72.6378 50.8512 72.5046 50.9134 72.3467 51.119C72.1888 51.3245 72.0637 51.5987 71.9713 51.9414C71.8788 52.2841 71.8391 52.6262 71.8521 52.9676C71.8607 53.1913 71.89 53.3693 71.9403 53.5016C71.9972 53.6128 72.067 53.6641 72.1495 53.6555C72.2325 53.6587 72.3278 53.5902 72.4355 53.4501Z" fill="url(#paint1_linear_85_1985)"/>
<g clip-path="url(#clip1_85_1985)">
<path d="M19.0947 61.7529L18.7467 51.3319L19.2453 51.5121L19.5933 61.9332L19.0947 61.7529ZM20.5905 62.2937L20.2424 51.8727L20.741 52.0529L21.0891 62.474L20.5905 62.2937ZM23.0835 63.195L22.7354 52.774L23.7326 53.1345L24.0807 63.5555L23.0835 63.195ZM22.1273 68.4855C21.9611 68.4254 21.8046 68.3281 21.6578 68.1936C21.511 68.0591 21.3854 67.9032 21.2809 67.7258L21.1277 68.0543L20.8452 67.9521L20.6995 63.5894L21.2147 63.7757L21.2159 63.811C21.1949 63.8384 21.1792 63.8618 21.1689 63.8813C21.159 63.9126 21.1553 63.9636 21.1576 64.0343L21.209 65.5709C21.3032 65.4421 21.4263 65.3587 21.5782 65.3206C21.7302 65.2824 21.8837 65.2914 22.0389 65.3475C22.3934 65.4757 22.6803 65.7074 22.8995 66.0425C23.119 66.3895 23.2371 66.8102 23.2536 67.3048C23.265 67.6463 23.2194 67.9206 23.1169 68.1278C23.0143 68.335 22.8709 68.4635 22.6864 68.5131C22.5131 68.5668 22.3267 68.5576 22.1273 68.4855ZM22.0632 68.0435C22.2848 68.1237 22.4645 68.0955 22.6022 67.9592C22.7404 67.8347 22.8028 67.5722 22.7894 67.1719C22.7764 66.7833 22.7003 66.4708 22.5611 66.2343C22.4103 65.982 22.2186 65.8138 21.986 65.7297C21.7533 65.6456 21.5687 65.6894 21.4321 65.861C21.2951 66.0209 21.2326 66.2775 21.2444 66.6307C21.2695 67.3843 21.5425 67.8553 22.0632 68.0435ZM24.5805 63.7363L24.2325 53.3152L24.7311 53.4955L25.0791 63.9165L24.5805 63.7363ZM25.5777 64.0968L25.2297 53.6758L26.2269 54.0363L26.5749 64.4573L25.5777 64.0968ZM27.5721 64.8178L27.224 54.3968L27.7226 54.5771L28.0707 64.9981L27.5721 64.8178ZM27.6463 70.4808C27.2253 70.3286 26.8884 70.073 26.6356 69.7141C26.3717 69.3511 26.2315 68.9223 26.215 68.4278C26.2039 68.0981 26.2552 67.8316 26.3689 67.6284C26.4718 67.433 26.621 67.3124 26.8165 67.2668C27.0006 67.2053 27.2144 67.2187 27.4582 67.3068C27.8017 67.431 28.0826 67.6489 28.301 67.9605C28.5198 68.2839 28.637 68.6811 28.6527 69.1521C28.6543 69.1992 28.6567 69.2699 28.6598 69.3641L26.6488 68.637C26.6721 69.006 26.7755 69.3168 26.9591 69.5693C27.1427 69.8218 27.373 69.9981 27.6499 70.0983C27.9491 70.2064 28.1891 70.1827 28.37 70.0271L28.6282 70.3821C28.3946 70.6002 28.0673 70.6331 27.6463 70.4808ZM28.1987 68.8309C28.1893 68.5483 28.1153 68.3005 27.9769 68.0876C27.8384 67.8747 27.6584 67.7282 27.4368 67.6481C27.2373 67.576 27.0626 67.5884 26.9126 67.6854C26.7626 67.7824 26.6761 67.978 26.6531 68.2721L28.1987 68.8309ZM30.0664 65.7196L29.7183 55.2986L30.7155 55.6591L31.0635 66.0801L30.0664 65.7196ZM31.5621 66.2604L31.2141 55.8394L32.2113 56.1999L32.5593 66.6209L31.5621 66.2604ZM33.5565 66.9814L33.2084 56.5604L34.2056 56.9209L34.5537 67.342L33.5565 66.9814ZM35.5522 67.703L35.2041 57.2819L35.7027 57.4622L36.0508 67.8832L35.5522 67.703ZM37.048 68.2437L36.6999 57.8227L37.1985 58.003L37.5465 68.424L37.048 68.2437ZM38.0451 68.6043L37.6971 58.1832L38.6943 58.5438L39.0423 68.9648L38.0451 68.6043ZM38.3467 71.2435C38.7456 71.3877 39.054 71.6097 39.272 71.9096C39.49 72.2094 39.6081 72.6301 39.6261 73.1718L39.6792 74.7615L39.1973 74.5872L39.1819 74.128C39.0275 74.4211 38.7121 74.4816 38.2357 74.3093C37.9254 74.1972 37.6791 74.0325 37.4967 73.8153C37.3144 73.5982 37.219 73.3659 37.2108 73.1187C37.2037 72.9067 37.2641 72.7482 37.3919 72.6432C37.5087 72.5342 37.6763 72.4727 37.8947 72.4586C38.1025 72.4523 38.3393 72.4972 38.6053 72.5933C38.8379 72.6774 39.0489 72.7653 39.238 72.857C39.2048 72.5193 39.1139 72.2537 38.9651 72.0603C38.8163 71.867 38.6035 71.7202 38.3265 71.62C38.1824 71.568 38.0505 71.5493 37.9305 71.5642C37.7996 71.575 37.6804 71.6133 37.5732 71.6792L37.3471 71.3009C37.6036 71.1144 37.9368 71.0953 38.3467 71.2435ZM38.2737 73.9741C38.584 74.0863 38.8244 74.0743 38.995 73.9382C39.166 73.8139 39.2511 73.5771 39.2504 73.2279C39.0608 73.1245 38.8608 73.0347 38.6503 72.9586C38.3401 72.8464 38.0927 72.8152 37.9083 72.8648C37.7346 72.9067 37.6514 73.0395 37.6589 73.2632C37.6699 73.5929 37.8749 73.8299 38.2737 73.9741ZM41.038 69.6863L40.6899 59.2653L41.1885 59.4456L41.5366 69.8666L41.038 69.6863ZM42.5338 70.2271L42.1857 59.8061L42.6843 59.9863L43.0324 70.4074L42.5338 70.2271ZM45.0267 71.1284L44.6787 60.7074L45.6759 61.0679L46.0239 71.4889L45.0267 71.1284ZM44.0705 76.4189C43.9043 76.3588 43.7478 76.2615 43.601 76.127C43.4542 75.9925 43.3286 75.8366 43.2242 75.6592L43.071 75.9877L42.7884 75.8856L42.6427 71.5229L43.1579 71.7091L43.1591 71.7444C43.1381 71.7718 43.1225 71.7952 43.1122 71.8147C43.1023 71.8461 43.0985 71.897 43.1009 71.9677L43.1522 73.5044C43.2464 73.3756 43.3695 73.2921 43.5215 73.254C43.6735 73.2159 43.827 73.2248 43.9821 73.2809C44.3367 73.4091 44.6235 73.6408 44.8427 73.9759C45.0623 74.3229 45.1803 74.7436 45.1968 75.2382C45.2082 75.5797 45.1627 75.854 45.0601 76.0612C44.9576 76.2685 44.8141 76.3969 44.6297 76.4465C44.4563 76.5002 44.2699 76.491 44.0705 76.4189ZM44.0065 75.9769C44.2281 76.0571 44.4078 76.029 44.5455 75.8926C44.6836 75.7681 44.746 75.5056 44.7327 75.1053C44.7197 74.7167 44.6436 74.4042 44.5043 74.1677C44.3536 73.9154 44.1619 73.7472 43.9292 73.6631C43.6965 73.579 43.5119 73.6228 43.3754 73.7944C43.2384 73.9543 43.1758 74.2109 43.1876 74.5641C43.2128 75.3177 43.4857 75.7887 44.0065 75.9769ZM46.5238 71.6697L46.1757 61.2486L46.6743 61.4289L47.0224 71.8499L46.5238 71.6697ZM47.521 72.0302L47.1729 61.6092L49.1673 62.3302L49.5154 72.7512L47.521 72.0302ZM50.5125 73.1118L50.1645 62.6907L50.6631 62.871L51.0111 73.292L50.5125 73.1118ZM49.4566 78.3662C48.9802 78.1939 48.576 77.8908 48.2441 77.4567L48.4786 77.1052L48.5095 77.0466L48.5605 77.0999C48.5609 77.1117 48.5615 77.1294 48.5623 77.1529C48.5746 77.1923 48.5866 77.2257 48.5985 77.2533C48.6218 77.2966 48.6452 77.3399 48.6685 77.3833C48.7714 77.5135 48.8847 77.6301 49.0086 77.7331C49.132 77.8242 49.2824 77.9019 49.4597 77.9659C49.6813 78.0461 49.8572 78.0689 49.9874 78.0346C50.1065 77.9962 50.1635 77.9005 50.1584 77.7474C50.1541 77.6179 50.1007 77.4939 49.9982 77.3754C49.8957 77.2569 49.7046 77.1064 49.4249 76.9238C48.7083 76.4437 48.3433 76.0035 48.3299 75.6032C48.3221 75.3677 48.4101 75.2192 48.5942 75.1578C48.7667 75.0806 49.0192 75.102 49.3516 75.2222C49.6064 75.3143 49.8239 75.4337 50.0039 75.5802C50.1835 75.7149 50.3481 75.8908 50.4977 76.1077L50.2424 76.3295L50.2109 76.3705L50.1765 76.3231C50.1749 76.276 50.1627 76.2367 50.1397 76.2051C50.1274 76.1658 50.0986 76.1204 50.0531 76.0691C49.9506 75.9506 49.8434 75.8537 49.7314 75.7783C49.6079 75.6871 49.4908 75.6215 49.38 75.5815C49.2027 75.5174 49.0543 75.4986 48.9348 75.5252C48.826 75.544 48.7735 75.6123 48.7775 75.7301C48.7814 75.8478 48.8457 75.9699 48.9703 76.0964C49.0843 76.2307 49.2924 76.399 49.5947 76.6014C49.9532 76.8473 50.2066 77.0611 50.355 77.2427C50.5144 77.4283 50.5979 77.6329 50.6053 77.8567C50.6144 78.1275 50.5221 78.3152 50.3286 78.4197C50.1351 78.5242 49.8444 78.5064 49.4566 78.3662Z" fill="url(#paint2_linear_85_1985)"/>
</g>
</g>
<defs>
<linearGradient id="paint0_linear_85_1985" x1="20.8991" y1="28.0574" x2="62.815" y2="59.0332" gradientUnits="userSpaceOnUse">
<stop stop-color="white"/>
<stop offset="1" stop-color="white"/>
</linearGradient>
<linearGradient id="paint1_linear_85_1985" x1="63.2365" y1="48.3283" x2="72.3566" y2="55.3338" gradientUnits="userSpaceOnUse">
<stop stop-color="white"/>
<stop offset="1" stop-color="white" stop-opacity="0"/>
</linearGradient>
<linearGradient id="paint2_linear_85_1985" x1="35.6552" y1="56.8791" x2="29.9724" y2="72.5973" gradientUnits="userSpaceOnUse">
<stop stop-color="white"/>
<stop offset="1" stop-color="white" stop-opacity="0"/>
</linearGradient>
<clipPath id="clip0_85_1985">
<rect width="66.4827" height="71.9995" fill="white" transform="translate(0 27.01) rotate(-23.9708)"/>
</clipPath>
<clipPath id="clip1_85_1985">
<rect width="35.0647" height="21.2317" fill="white" transform="matrix(0.940424 0.340003 0.033381 0.999443 18.6821 49.403)"/>
</clipPath>
</defs>
</svg>